# xmcd
#
# Track frame offsets: 
#        150
#        8960
#        22241
#        35117
#        47718
#        59011
#        68132
#        81260
#        100934
#        126891
#        138001
#        147246
#        164900
#        175143
#        183609
#
# Disc length: 2849 seconds
#
# Revision: 0
# Processed by: cddbd v1.5.2PL0 Copyright (c) Steve Scherf et al.
# Submitted via: ExactAudioCopy v0.95b3
#
DISCID=e20b1f0f
DTITLE=The Beatles  - John Barrett Tapes Vol. 8 - Sessions  
DYEAR=1900
DGENRE=
TTITLE0=How Do You Do It
TTITLE1=One After 909
TTITLE2=Leave My Kitten Alone
TTITLE3=If You've Got Trouble
TTITLE4=That Means A Lot
TTITLE5=Norwegian Wood
TTITLE6=I'm Looking Through You
TTITLE7=Not Guilty
TTITLE8=What's The New Mary Jane
TTITLE9=Come And Get It
TTITLE10=Shake, Rattle And Roll
TTITLE11=Rock Jam
TTITLE12=Blue Suede Shoes
TTITLE13=Mailman Bring Me No More Blues
TTITLE14=12-Bar Original (Acetate)
EXTD=
EXTT0=
EXTT1=
EXTT2=
EXTT3=
EXTT4=
EXTT5=
EXTT6=
EXTT7=
EXTT8=
EXTT9=
EXTT10=
EXTT11=
EXTT12=
EXTT13=
EXTT14=
PLAYORDER=
